<?xml version="1.0" standalone="no"?>
<!DOCTYPE svg PUBLIC "-//W3C//DTD SVG 1.1//EN" "http://www.w3.org/Graphics/SVG/1.1/DTD/svg11.dtd">
<svg xmlns="http://www.w3.org/2000/svg" xmlns:xlink="http://www.w3.org/1999/xlink" version="1.1" width="200" height="200" style="fill: rgba(0,0,0, 0.54);" viewBox="0 0 98 101" preserveAspectRatio="xMidYMid meet" xml:space="preserve"><g id="noun-graph" style="display:none"><path d="M85.351,13.957c-3.575-3.575-9.371-3.575-12.946,0c-3.204,3.204-3.534,8.19-0.996,11.764L60.537,36.592    c-1.924-1.338-4.259-2.123-6.775-2.123c-2.725,0-5.239,0.922-7.247,2.469l-7.636-7.636c1.604-2.71,1.242-6.261-1.087-8.59    c-2.759-2.759-7.231-2.758-9.989,0c-2.759,2.758-2.759,7.231,0,9.989c2.336,2.336,5.901,2.693,8.614,1.072l7.673,7.673    c-1.139,1.587-1.896,3.465-2.139,5.499H30.122c-0.785-4.259-4.515-7.486-9-7.485c-5.056,0-9.155,4.099-9.155,9.155    c0,5.056,4.098,9.155,9.155,9.155c4.433,0,8.129-3.151,8.973-7.334h11.951c0.886,5.031,4.944,8.981,10.027,9.707v12.42    c-4.28,0.768-7.528,4.507-7.528,9.008c0,5.056,4.099,9.155,9.155,9.155c5.056,0,9.155-4.099,9.155-9.155    c0-4.418-3.129-8.104-7.292-8.964V58.126c5.709-0.87,10.097-5.813,10.097-11.761c0-2.788-0.964-5.354-2.576-7.384l10.848-10.848    c3.545,2.281,8.318,1.873,11.42-1.229C88.926,23.329,88.926,17.532,85.351,13.957z M53.762,54.661    c-4.574,0-8.295-3.721-8.295-8.295c0-4.574,3.721-8.295,8.295-8.295s8.295,3.721,8.295,8.295    C62.057,50.94,58.336,54.661,53.762,54.661z"/></g><g id="noun-bar"><rect x="4.803" y="47.805" width="9.364" height="17.382"/><rect x="18.243" y="37.095" width="9.364" height="28.092"/><rect x="31.682" y="53.599" width="9.364" height="11.588"/><rect x="45.121" y="43.806" width="9.364" height="21.38"/><rect x="58.561" y="37.095" width="9.364" height="28.092"/><rect x="72" y="41.961" width="9.364" height="23.225"/><rect x="85.439" y="34.051" width="9.364" height="31.135"/></g>
<g id="noun-donut" style="display:none"><path class="st2" d="M86.8,45.2H71.6c-0.6-3.3-1.9-6.2-3.7-8.9l10.6-10.6C83.1,31,86,37.7,86.8,45.2z"/><path class="st2" d="M71.6,52.6h15.2C85,71.4,69.1,85.9,50,85.9c-2.9,0-5.8-0.4-8.5-1l5-14.4c1.2,0.2,2.3,0.2,3.5,0.2      C60.8,71,70,63,71.6,52.6z"/><path class="st2" d="M73.3,20.2L62.7,30.8c-2.7-1.9-5.6-3.1-8.9-3.7v-15C61.2,12.9,67.9,15.8,73.3,20.2z"/><path class="st2" d="M13.2,45.2c1.7-17.5,15.6-31.2,33.1-33.1v15.2c-9.2,1.5-16.4,8.7-17.9,17.9H13.2z"/><path class="st2" d="M39.4,68.2l-5,14.1c-11.7-5.4-20-16.6-21.2-29.8h15.2C29.4,59.3,33.6,64.9,39.4,68.2z"/></g>
</svg>