<svg xmlns="http://www.w3.org/2000/svg" xmlns:xlink="http://www.w3.org/1999/xlink" version="1.1" x="0px" y="0px" viewBox="0 0 100 125" style="enable-background:new 0 0 100 100;" xml:space="preserve"><style type="text/css">
	.st0{fill:none;stroke:#000000;stroke-width:5;stroke-miterlimit:10;}
	.st1{fill:none;stroke:#000000;stroke-width:7;stroke-miterlimit:10;}
	.st2{fill:#010101;}
	.st3{fill:#FFFFFF;}
</style><g><g><g><g><path class="st2" d="M86.8,45.2H71.6c-0.6-3.3-1.9-6.2-3.7-8.9l10.6-10.6C83.1,31,86,37.7,86.8,45.2z"/></g><g><path class="st2" d="M71.6,52.6h15.2C85,71.4,69.1,85.9,50,85.9c-2.9,0-5.8-0.4-8.5-1l5-14.4c1.2,0.2,2.3,0.2,3.5,0.2      C60.8,71,70,63,71.6,52.6z"/></g><g><path class="st2" d="M73.3,20.2L62.7,30.8c-2.7-1.9-5.6-3.1-8.9-3.7v-15C61.2,12.9,67.9,15.8,73.3,20.2z"/></g><g><path class="st2" d="M13.2,45.2c1.7-17.5,15.6-31.2,33.1-33.1v15.2c-9.2,1.5-16.4,8.7-17.9,17.9H13.2z"/></g><g><path class="st2" d="M39.4,68.2l-5,14.1c-11.7-5.4-20-16.6-21.2-29.8h15.2C29.4,59.3,33.6,64.9,39.4,68.2z"/></g></g></g></g><text x="0" y="115" fill="#000000" font-size="5px" font-weight="bold" font-family="'Helvetica Neue', Helvetica, Arial-Unicode, Arial, Sans-serif">Created by Martha Ormiston</text><text x="0" y="120" fill="#000000" font-size="5px" font-weight="bold" font-family="'Helvetica Neue', Helvetica, Arial-Unicode, Arial, Sans-serif">from the Noun Project</text></svg>